HIERARCHY
ROOT hip
{
  OFFSET 0 90.174 2.4664
  CHANNELS 6 Xposition Yposition Zposition Zrotation Xrotation Yrotation
  JOINT abdomen
  {
    OFFSET 0 -1.186 -1.5018
    CHANNELS 6 Xposition Yposition Zposition Zrotation Xrotation Yrotation
    JOINT abdomen2
    {
      OFFSET 0 9.964 0.2134
      CHANNELS 6 Xposition Yposition Zposition Zrotation Xrotation Yrotation
      JOINT chest
      {
        OFFSET 0 13.134 -3.2573
        CHANNELS 6 Xposition Yposition Zposition Zrotation Xrotation Yrotation
        JOINT neck
        {
          OFFSET 0 20.686 -1.6905
          CHANNELS 6 Xposition Yposition Zposition Zrotation Xrotation Yrotation
          JOINT head
          {
            OFFSET 0 7.238 -0.1237
            CHANNELS 6 Xposition Yposition Zposition Zrotation Xrotation Yrotation
            End Site
            {
              OFFSET 0 0 0
            }
          }
        }
        JOINT lCollar
        {
          OFFSET 1.7069 20.075 5.0056
          CHANNELS 6 Xposition Yposition Zposition Zrotation Xrotation Yrotation
          JOINT lShldr
          {
            OFFSET 13.6458 -0.047 -4.849
            CHANNELS 6 Xposition Yposition Zposition Zrotation Xrotation Yrotation
            JOINT lForeArm
            {
              OFFSET 28.3255 -0.9759 2.2888
              CHANNELS 6 Xposition Yposition Zposition Zrotation Xrotation Yrotation
              JOINT lHand
              {
                OFFSET 22.1583 -0.53 10.8316
                CHANNELS 6 Xposition Yposition Zposition Zrotation Xrotation Yrotation
                JOINT lThumb1
                {
                  OFFSET 0.786 0.112 2.5817
                  CHANNELS 6 Xposition Yposition Zposition Zrotation Xrotation Yrotation
                  JOINT lThumb2
                  {
                    OFFSET 0.3601 -0.878 4.2331
                    CHANNELS 6 Xposition Yposition Zposition Zrotation Xrotation Yrotation
                    JOINT lThumb2_End
                    {
                      OFFSET 1.8127 -1.216 2.2227
                      CHANNELS 6 Xposition Yposition Zposition Zrotation Xrotation Yrotation
                      End Site
                      {
                        OFFSET 0.0181 -0.0122 0.0222
                      }
                    }
                  }
                }
                JOINT lCarpal1
                {
                  OFFSET 0.9571 1.114 1.7695
                  CHANNELS 6 Xposition Yposition Zposition Zrotation Xrotation Yrotation
                  JOINT lIndex1
                  {
                    OFFSET 4.1246 0.487 4.1451
                    CHANNELS 6 Xposition Yposition Zposition Zrotation Xrotation Yrotation
                    JOINT lIndex2
                    {
                      OFFSET 3.4052 -1.454 2.7682
                      CHANNELS 6 Xposition Yposition Zposition Zrotation Xrotation Yrotation
                      JOINT lIndex2_End
                      {
                        OFFSET 1.4531 -1.795 1.2713
                        CHANNELS 6 Xposition Yposition Zposition Zrotation Xrotation Yrotation
                        End Site
                        {
                          OFFSET 0.0145 -0.0179 0.0127
                        }
                      }
                    }
                  }
                  JOINT lMid1
                  {
                    OFFSET 5.6954 0.21 2.1184
                    CHANNELS 6 Xposition Yposition Zposition Zrotation Xrotation Yrotation
                    JOINT lMid2
                    {
                      OFFSET 3.9766 -1.54 2.3863
                      CHANNELS 6 Xposition Yposition Zposition Zrotation Xrotation Yrotation
                      JOINT lMid2_End
                      {
                        OFFSET 1.4042 -1.926 1.125
                        CHANNELS 6 Xposition Yposition Zposition Zrotation Xrotation Yrotation
                        End Site
                        {
                          OFFSET 0.014 -0.0193 0.0113
                        }
                      }
                    }
                  }
                }
                JOINT lCarpal2
                {
                  OFFSET 2.0956 0.66 -0.3894
                  CHANNELS 6 Xposition Yposition Zposition Zrotation Xrotation Yrotation
                  JOINT lRing1
                  {
                    OFFSET 5.0395 -0.09 2.4971
                    CHANNELS 6 Xposition Yposition Zposition Zrotation Xrotation Yrotation
                    JOINT lRing2
                    {
                      OFFSET 3.7921 -1.552 1.4806
                      CHANNELS 6 Xposition Yposition Zposition Zrotation Xrotation Yrotation
                      JOINT lRing2_End
                      {
                        OFFSET 1.4655 -1.808 0.9609
                        CHANNELS 6 Xposition Yposition Zposition Zrotation Xrotation Yrotation
                        End Site
                        {
                          OFFSET 0.0147 -0.0181 0.0096
                        }
                      }
                    }
                  }
                  JOINT lPinky1
                  {
                    OFFSET 4.9141 -1.269 0.3591
                    CHANNELS 6 Xposition Yposition Zposition Zrotation Xrotation Yrotation
                    JOINT lPinky2
                    {
                      OFFSET 3.1477 -1.685 0.8462
                      CHANNELS 6 Xposition Yposition Zposition Zrotation Xrotation Yrotation
                      JOINT lPinky2_End
                      {
                        OFFSET 0.8055 -1.585 0.7955
                        CHANNELS 6 Xposition Yposition Zposition Zrotation Xrotation Yrotation
                        End Site
                        {
                          OFFSET 0.0081 -0.0158 0.008
                        }
                      }
                    }
                  }
                }
              }
            }
          }
        }
        JOINT rCollar
        {
          OFFSET -1.7069 20.075 5.0056
          CHANNELS 6 Xposition Yposition Zposition Zrotation Xrotation Yrotation
          JOINT rShldr
          {
            OFFSET -13.6458 -0.047 -4.849
            CHANNELS 6 Xposition Yposition Zposition Zrotation Xrotation Yrotation
            JOINT rForeArm
            {
              OFFSET -28.3255 -0.9759 2.2888
              CHANNELS 6 Xposition Yposition Zposition Zrotation Xrotation Yrotation
              JOINT rHand
              {
                OFFSET -22.1583 -0.53 10.8316
                CHANNELS 6 Xposition Yposition Zposition Zrotation Xrotation Yrotation
                JOINT rThumb1
                {
                  OFFSET -0.786 0.112 2.5817
                  CHANNELS 6 Xposition Yposition Zposition Zrotation Xrotation Yrotation
                  JOINT rThumb2
                  {
                    OFFSET -0.3601 -0.878 4.2331
                    CHANNELS 6 Xposition Yposition Zposition Zrotation Xrotation Yrotation
                    JOINT rThumb2_End
                    {
                      OFFSET -1.8127 -1.216 2.2227
                      CHANNELS 6 Xposition Yposition Zposition Zrotation Xrotation Yrotation
                      End Site
                      {
                        OFFSET -0.0181 -0.0122 0.0222
                      }
                    }
                  }
                }
                JOINT rCarpal1
                {
                  OFFSET -0.9571 1.114 1.7695
                  CHANNELS 6 Xposition Yposition Zposition Zrotation Xrotation Yrotation
                  JOINT rIndex1
                  {
                    OFFSET -4.1246 0.487 4.1451
                    CHANNELS 6 Xposition Yposition Zposition Zrotation Xrotation Yrotation
                    JOINT rIndex2
                    {
                      OFFSET -3.4052 -1.454 2.7682
                      CHANNELS 6 Xposition Yposition Zposition Zrotation Xrotation Yrotation
                      JOINT rIndex2_End
                      {
                        OFFSET -1.4531 -1.795 1.2713
                        CHANNELS 6 Xposition Yposition Zposition Zrotation Xrotation Yrotation
                        End Site
                        {
                          OFFSET -0.0145 -0.018 0.0127
                        }
                      }
                    }
                  }
                  JOINT rMid1
                  {
                    OFFSET -5.6954 0.21 2.1184
                    CHANNELS 6 Xposition Yposition Zposition Zrotation Xrotation Yrotation
                    JOINT rMid2
                    {
                      OFFSET -3.9766 -1.54 2.3863
                      CHANNELS 6 Xposition Yposition Zposition Zrotation Xrotation Yrotation
                      JOINT rMid2_End
                      {
                        OFFSET -1.4042 -1.926 1.125
                        CHANNELS 6 Xposition Yposition Zposition Zrotation Xrotation Yrotation
                        End Site
                        {
                          OFFSET -0.014 -0.0193 0.0113
                        }
                      }
                    }
                  }
                }
                JOINT rCarpal2
                {
                  OFFSET -2.0956 0.66 -0.3894
                  CHANNELS 6 Xposition Yposition Zposition Zrotation Xrotation Yrotation
                  JOINT rRing1
                  {
                    OFFSET -5.0395 -0.09 2.4971
                    CHANNELS 6 Xposition Yposition Zposition Zrotation Xrotation Yrotation
                    JOINT rRing2
                    {
                      OFFSET -3.7921 -1.552 1.4806
                      CHANNELS 6 Xposition Yposition Zposition Zrotation Xrotation Yrotation
                      JOINT rRing2_End
                      {
                        OFFSET -1.4655 -1.808 0.9609
                        CHANNELS 6 Xposition Yposition Zposition Zrotation Xrotation Yrotation
                        End Site
                        {
                          OFFSET -0.0147 -0.0181 0.0096
                        }
                      }
                    }
                  }
                  JOINT rPinky1
                  {
                    OFFSET -4.9141 -1.269 0.3592
                    CHANNELS 6 Xposition Yposition Zposition Zrotation Xrotation Yrotation
                    JOINT rPinky2
                    {
                      OFFSET -3.1477 -1.685 0.8462
                      CHANNELS 6 Xposition Yposition Zposition Zrotation Xrotation Yrotation
                      JOINT rPinky2_End
                      {
                        OFFSET -0.8055 -1.585 0.7955
                        CHANNELS 6 Xposition Yposition Zposition Zrotation Xrotation Yrotation
                        End Site
                        {
                          OFFSET -0.0081 -0.0158 0.008
                        }
                      }
                    }
                  }
                }
              }
            }
          }
        }
      }
    }
  }
  JOINT lThigh
  {
    OFFSET 8.367 -8.2066 0.5982
    CHANNELS 6 Xposition Yposition Zposition Zrotation Xrotation Yrotation
    JOINT lShin
    {
      OFFSET 2.1923 -43.463 -0.4932
      CHANNELS 6 Xposition Yposition Zposition Zrotation Xrotation Yrotation
      JOINT lFoot
      {
        OFFSET 0.7333 -45.8593 -2.6451
        CHANNELS 6 Xposition Yposition Zposition Zrotation Xrotation Yrotation
        End Site
        {
          OFFSET 2.6618 -4.2699 12.3931
        }
      }
    }
  }
  JOINT rThigh
  {
    OFFSET -8.367 -8.2066 0.5982
    CHANNELS 6 Xposition Yposition Zposition Zrotation Xrotation Yrotation
    JOINT rShin
    {
      OFFSET -2.1923 -43.463 -0.4931
      CHANNELS 6 Xposition Yposition Zposition Zrotation Xrotation Yrotation
      JOINT rFoot
      {
        OFFSET -0.7333 -45.8593 -2.6451
        CHANNELS 6 Xposition Yposition Zposition Zrotation Xrotation Yrotation
        End Site
        {
          OFFSET -2.6618 -4.2699 12.3931
        }
      }
    }
  }
}
MOTION
Frames:	4
Frame Time:	0.0333333
0 90.174 2.4664 0 0 -0 0 -1.186 -1.5018 0 0 -0 0 9.964 0.2134 0 0 -0 0 13.134 -3.2573 0 0 -0 0 20.686 -1.6905 0 0 -0 0 7.238 -0.1237 0 0 -0 1.7069 20.075 5.0056 0 0 -0 13.6458 -0.047 -4.849 1.66051 0.0835086 5.75766 28.3255 -0.9759 2.2888 -0.0175111 0.895433 15.7816 22.1583 -0.53 10.8316 7.95139e-016 -1.98785e-016 -0 0.786 0.112 2.5817 5.46658e-016 -3.97569e-016 -0 0.3601 -0.878 4.2331 5.96354e-016 0 -0 1.8127 -1.216 2.2227 3.97569e-016 1.98785e-016 9.54166e-015 0.9571 1.114 1.7695 1.49089e-016 -3.97569e-016 -0 4.1246 0.487 4.1451 6.4605e-016 0 3.18055e-015 3.4052 -1.454 2.7682 5.96354e-016 0 3.18055e-015 1.4531 -1.795 1.2713 8.94531e-016 -1.98785e-016 6.36111e-015 5.6954 0.21 2.1184 6.4605e-016 0 3.18055e-015 3.9766 -1.54 2.3863 5.96354e-016 0 3.18055e-015 1.4042 -1.926 1.125 8.94531e-016 -1.98785e-016 6.36111e-015 2.0956 0.66 -0.3894 1.49089e-016 -3.97569e-016 -0 5.0395 -0.09 2.4971 6.4605e-016 0 3.18055e-015 3.7921 -1.552 1.4806 5.96354e-016 0 3.18055e-015 1.4655 -1.808 0.9609 8.94531e-016 -1.98785e-016 6.36111e-015 4.9141 -1.269 0.3591 6.4605e-016 0 3.18055e-015 3.1477 -1.685 0.8462 5.96354e-016 0 3.18055e-015 0.8055 -1.585 0.7955 8.94531e-016 -1.98785e-016 6.36111e-015 -1.7069 20.075 5.0056 0 0 -0 -13.6458 -0.047 -4.849 -1.4496 0.0636048 -5.0245 -28.3255 -0.9759 2.2888 -1.74811 1.20616 -16.8394 -22.1583 -0.53 10.8316 -1.19271e-015 1.98785e-016 -3.18055e-015 -0.786 0.112 2.5817 -3.97569e-016 1.98785e-016 -3.18055e-015 -0.3601 -0.878 4.2331 -2.98177e-016 1.98785e-016 -3.18055e-015 -1.8127 -1.216 2.2227 -2.98177e-016 3.97569e-016 -0 -0.9571 1.114 1.7695 4.96962e-016 0 -6.36111e-015 -4.1246 0.487 4.1451 -9.93923e-017 3.97569e-016 -0 -3.4052 -1.454 2.7682 -8.94531e-016 5.96354e-016 -0 -1.4531 -1.795 1.2713 -3.97569e-016 3.97569e-016 -0 -5.6954 0.21 2.1184 -9.93923e-017 3.97569e-016 -0 -3.9766 -1.54 2.3863 -8.94531e-016 5.96354e-016 -0 -1.4042 -1.926 1.125 -3.97569e-016 3.97569e-016 -0 -2.0956 0.66 -0.3894 4.96962e-016 0 -6.36111e-015 -5.0395 -0.09 2.4971 -9.93923e-017 3.97569e-016 -0 -3.7921 -1.552 1.4806 -8.94531e-016 5.96354e-016 -0 -1.4655 -1.808 0.9609 -3.97569e-016 3.97569e-016 -0 -4.9141 -1.269 0.3592 -9.93923e-017 3.97569e-016 -0 -3.1477 -1.685 0.8462 -8.94531e-016 5.96354e-016 -0 -0.8055 -1.585 0.7955 -3.97569e-016 3.97569e-016 -0 8.367 -8.2066 0.5982 -4.66115 -1.03232 0.120763 2.1923 -43.463 -0.4932 0.00990601 1.55097 0.177175 0.7333 -45.8593 -2.6451 4.65196 -0.54114 -0.255042 -8.367 -8.2066 0.5982 4.66115 -1.03222 -0.120763 -2.1923 -43.463 -0.4931 -0.00990459 1.5509 -0.177176 -0.7333 -45.8593 -2.6451 -4.65196 -0.541171 0.255041 
0.000164017 29.3789 -6.99207 -0 -72.5948 -0 0 -1.186 -1.5018 -0.0230348 0.633234 -0.14765 0 9.964 0.2134 -0.0444416 1.26654 -0.295072 2.77556e-017 13.134 -3.2573 -0.0444416 1.26653 -0.295072 -2.77556e-017 20.686 -1.6905 2.72343e-005 29.6681 -6.74426e-005 5.55112e-017 7.238 -0.1237 5.91608e-008 6.76221 -3.27633e-008 1.7069 20.075 5.0056 12.063 3.3724 5.19007 13.6458 -0.047 -4.849 -19.3803 -58.066 -33.1518 28.3255 -0.9759 2.2888 23.6486 -8.47345 -81.1381 22.1583 -0.53 10.8316 -10.156 -4.94111 -17.1829 0.786 0.112 2.5817 -1.52373e-006 4.10354e-006 2.04034e-006 0.3601 -0.878 4.2331 -1.2899e-006 -2.81363e-006 -1.04243e-006 1.8127 -1.216 2.2227 -1.52373e-006 4.10354e-006 2.04034e-006 0.9571 1.114 1.7695 3.53113e-031 -6.36111e-015 3.18055e-015 4.1246 0.487 4.1451 -1.52373e-006 4.10354e-006 2.04034e-006 3.4052 -1.454 2.7682 -1.2899e-006 -2.81363e-006 -1.04243e-006 1.4531 -1.795 1.2713 -1.52373e-006 4.10354e-006 2.04034e-006 5.6954 0.21 2.1184 -1.52373e-006 4.10354e-006 2.04034e-006 3.9766 -1.54 2.3863 -1.2899e-006 -2.81363e-006 -1.04243e-006 1.4042 -1.926 1.125 -1.52373e-006 4.10354e-006 2.04034e-006 2.0956 0.66 -0.3894 3.53113e-031 -6.36111e-015 3.18055e-015 5.0395 -0.09 2.4971 -1.52373e-006 4.10354e-006 2.04034e-006 3.7921 -1.552 1.4806 -1.2899e-006 -2.81363e-006 -1.04243e-006 1.4655 -1.808 0.9609 -1.52373e-006 4.10354e-006 2.04034e-006 4.9141 -1.269 0.3591 -1.52373e-006 4.10354e-006 2.04034e-006 3.1477 -1.685 0.8462 -1.2899e-006 -2.81363e-006 -1.04243e-006 0.8055 -1.585 0.7955 -1.52373e-006 4.10354e-006 2.04034e-006 -1.7069 20.075 5.0056 -12.0656 3.37297 -5.19265 -13.6458 -0.047 -4.849 19.707 -57.9494 34.1604 -28.3255 -0.9759 2.2888 -24.0807 -9.75953 80.0689 -22.1583 -0.53 10.8316 10.2916 -5.34265 17.0162 -0.786 0.112 2.5817 -3.18055e-015 0 -3.18055e-015 -0.3601 -0.878 4.2331 3.89889e-006 6.71417e-007 -1.07678e-006 -1.8127 -1.216 2.2227 -7.29394e-006 4.06474e-006 2.64901e-006 -0.9571 1.114 1.7695 -3.18055e-015 0 -3.18055e-015 -4.1246 0.487 4.1451 -1.76556e-031 -3.18055e-015 -3.18055e-015 -3.4052 -1.454 2.7682 3.89889e-006 6.71417e-007 -1.07678e-006 -1.4531 -1.795 1.2713 -7.29394e-006 4.06474e-006 2.64901e-006 -5.6954 0.21 2.1184 -1.76556e-031 -3.18055e-015 -3.18055e-015 -3.9766 -1.54 2.3863 3.89889e-006 6.71417e-007 -1.07678e-006 -1.4042 -1.926 1.125 -7.29394e-006 4.06474e-006 2.64901e-006 -2.0956 0.66 -0.3894 -3.18055e-015 0 -3.18055e-015 -5.0395 -0.09 2.4971 -1.76556e-031 -3.18055e-015 -3.18055e-015 -3.7921 -1.552 1.4806 3.89889e-006 6.71417e-007 -1.07678e-006 -1.4655 -1.808 0.9609 -7.29394e-006 4.06474e-006 2.64901e-006 -4.9141 -1.269 0.3592 -1.76556e-031 -3.18055e-015 -3.18055e-015 -3.1477 -1.685 0.8462 3.89889e-006 6.71417e-007 -1.07678e-006 -0.8055 -1.585 0.7955 -7.29394e-006 4.06474e-006 2.64901e-006 8.367 -8.2066 0.5982 27.0497 3.17429 28.5818 2.1923 -43.463 -0.4932 33.9753 42.2112 -27.447 0.7333 -45.8593 -2.6451 -1.99237 2.21133 1.06699 -8.367 -8.2066 0.5982 -27.0527 3.17653 -28.584 -2.1923 -43.463 -0.4931 -33.9746 42.2055 27.4401 -0.7333 -45.8593 -2.6451 1.98932 2.2114 -1.06657 
-0.000570441 -0.786135 -9.46961 -180 -74.7376 -180 0 -1.186 -1.5018 -0.0444954 0.895804 -0.213152 0 9.964 0.2134 -0.0856726 1.7918 -0.425685 -1.38778e-017 13.134 -3.2573 -0.0856725 1.79178 -0.425685 1.38778e-017 20.686 -1.6905 -1.048e-005 42.8212 3.16545e-005 2.77556e-017 7.238 -0.1237 2.98081e-007 9.32713 -1.01284e-007 1.7069 20.075 5.0056 17.2917 4.86739 7.5401 13.6458 -0.047 -4.849 -74.8094 -61.2505 -88.9745 28.3255 -0.9759 2.2888 16.9151 -37.6167 -119.119 22.1583 -0.53 10.8316 -15.956 -6.08873 -24.9294 0.786 0.112 2.5817 1.98785e-016 -9.54166e-015 -0 0.3601 -0.878 4.2331 -8.34575e-007 4.78271e-008 -1.48573e-007 1.8127 -1.216 2.2227 -8.34575e-007 4.78271e-008 -1.48573e-007 0.9571 1.114 1.7695 1.78906e-015 -6.36111e-015 -0 4.1246 0.487 4.1451 1.39149e-015 -3.18055e-015 5.56597e-015 3.4052 -1.454 2.7682 -8.34575e-007 4.78271e-008 -1.48573e-007 1.4531 -1.795 1.2713 -8.34575e-007 4.78271e-008 -1.48573e-007 5.6954 0.21 2.1184 1.39149e-015 -3.18055e-015 5.56597e-015 3.9766 -1.54 2.3863 -8.34575e-007 4.78271e-008 -1.48573e-007 1.4042 -1.926 1.125 -8.34575e-007 4.78271e-008 -1.48573e-007 2.0956 0.66 -0.3894 1.78906e-015 -6.36111e-015 -0 5.0395 -0.09 2.4971 1.39149e-015 -3.18055e-015 5.56597e-015 3.7921 -1.552 1.4806 -8.34575e-007 4.78271e-008 -1.48573e-007 1.4655 -1.808 0.9609 -8.34575e-007 4.78271e-008 -1.48573e-007 4.9141 -1.269 0.3591 1.39149e-015 -3.18055e-015 5.56597e-015 3.1477 -1.685 0.8462 -8.34575e-007 4.78271e-008 -1.48573e-007 0.8055 -1.585 0.7955 -8.34575e-007 4.78271e-008 -1.48573e-007 -1.7069 20.075 5.0056 -17.2954 4.86812 -7.54364 -13.6458 -0.047 -4.849 74.8113 -61.044 89.7094 -28.3255 -0.9759 2.2888 -16.5522 -38.7241 118.536 -22.1583 -0.53 10.8316 16.1879 -6.65204 24.7176 -0.786 0.112 2.5817 9.26787e-007 -1.62426e-006 -2.29931e-008 -0.3601 -0.878 4.2331 -1.76185e-006 1.57839e-006 -1.25756e-007 -1.8127 -1.216 2.2227 9.17271e-008 -1.67012e-006 -1.71742e-007 -0.9571 1.114 1.7695 -2.5842e-015 0 -7.95139e-016 -4.1246 0.487 4.1451 9.26787e-007 -1.62426e-006 -2.29931e-008 -3.4052 -1.454 2.7682 -1.76185e-006 1.57839e-006 -1.25756e-007 -1.4531 -1.795 1.2713 9.17271e-008 -1.67012e-006 -1.71742e-007 -5.6954 0.21 2.1184 9.26787e-007 -1.62426e-006 -2.29931e-008 -3.9766 -1.54 2.3863 -1.76185e-006 1.57839e-006 -1.25756e-007 -1.4042 -1.926 1.125 9.17271e-008 -1.67012e-006 -1.71742e-007 -2.0956 0.66 -0.3894 -2.5842e-015 0 -7.95139e-016 -5.0395 -0.09 2.4971 9.26787e-007 -1.62426e-006 -2.29931e-008 -3.7921 -1.552 1.4806 -1.76185e-006 1.57839e-006 -1.25756e-007 -1.4655 -1.808 0.9609 9.17271e-008 -1.67012e-006 -1.71742e-007 -4.9141 -1.269 0.3592 9.26787e-007 -1.62426e-006 -2.29931e-008 -3.1477 -1.685 0.8462 -1.76185e-006 1.57839e-006 -1.25756e-007 -0.8055 -1.585 0.7955 9.17271e-008 -1.67012e-006 -1.71742e-007 8.367 -8.2066 0.5982 41.0166 5.06006 41.6135 2.1923 -43.463 -0.4932 66.1429 51.4267 -50.8177 0.7333 -45.8593 -2.6451 -5.85086 3.17033 1.44899 -8.367 -8.2066 0.5982 -41.0203 5.06089 -41.6191 -2.1923 -43.463 -0.4931 -66.1697 51.4353 50.8432 -0.7333 -45.8593 -2.6451 5.84658 3.17153 -1.44973 
-0.00183281 6.03333 -9.05213 -180 -81.997 -180 0 -1.186 -1.5018 -0.0388762 0.787441 -0.198509 0 9.964 0.2134 -0.075034 1.57501 -0.396541 6.93889e-018 13.134 -3.2573 -0.0750339 1.57502 -0.396541 6.93889e-018 20.686 -1.6905 1.13518e-005 39.4594 -2.25835e-005 1.38778e-017 7.238 -0.1237 5.62923e-008 7.69451 -6.86553e-008 1.7069 20.075 5.0056 16.1405 4.53709 7.01664 13.6458 -0.047 -4.849 -62.3925 -63.2073 -76.8766 28.3255 -0.9759 2.2888 20.9628 -30.89 -109.871 22.1583 -0.53 10.8316 -14.6136 -5.90347 -23.2117 0.786 0.112 2.5817 4.30981e-007 5.77466e-008 -2.1326e-007 0.3601 -0.878 4.2331 -1.70407e-007 -5.65225e-008 -7.3703e-007 1.8127 -1.216 2.2227 -1.98785e-016 -2.38542e-015 6.36111e-015 0.9571 1.114 1.7695 5.96354e-016 1.59028e-015 -6.36111e-015 4.1246 0.487 4.1451 4.30981e-007 5.77466e-008 -2.1326e-007 3.4052 -1.454 2.7682 -1.70407e-007 -5.65225e-008 -7.3703e-007 1.4531 -1.795 1.2713 -1.98785e-016 -1.59028e-015 -3.18055e-015 5.6954 0.21 2.1184 4.30981e-007 5.77466e-008 -2.1326e-007 3.9766 -1.54 2.3863 -1.70407e-007 -5.65225e-008 -7.3703e-007 1.4042 -1.926 1.125 -1.98785e-016 -1.59028e-015 -3.18055e-015 2.0956 0.66 -0.3894 5.96354e-016 1.59028e-015 -6.36111e-015 5.0395 -0.09 2.4971 4.30981e-007 5.77466e-008 -2.1326e-007 3.7921 -1.552 1.4806 -1.70407e-007 -5.65225e-008 -7.3703e-007 1.4655 -1.808 0.9609 -1.98785e-016 -1.59028e-015 -3.18055e-015 4.9141 -1.269 0.3591 4.30981e-007 5.77466e-008 -2.1326e-007 3.1477 -1.685 0.8462 -1.70407e-007 -5.65225e-008 -7.3703e-007 0.8055 -1.585 0.7955 -1.98785e-016 -1.59028e-015 -3.18055e-015 -1.7069 20.075 5.0056 -16.1439 4.53783 -7.02001 -13.6458 -0.047 -4.849 62.4902 -63.0051 77.6963 -28.3255 -0.9759 2.2888 -20.8169 -32.0719 109.09 -22.1583 -0.53 10.8316 14.8223 -6.43211 23.0081 -0.786 0.112 2.5817 -2.33875e-007 -9.05495e-008 7.16451e-007 -0.3601 -0.878 4.2331 3.97569e-016 0 -0 -1.8127 -1.216 2.2227 2.33875e-007 9.05495e-008 -7.16451e-007 -0.9571 1.114 1.7695 1.19271e-015 -7.95139e-016 -0 -4.1246 0.487 4.1451 -2.33875e-007 -9.05495e-008 7.16451e-007 -3.4052 -1.454 2.7682 3.97569e-016 -7.95139e-016 3.18055e-015 -1.4531 -1.795 1.2713 2.33875e-007 9.05495e-008 -7.16451e-007 -5.6954 0.21 2.1184 -2.33875e-007 -9.05495e-008 7.16451e-007 -3.9766 -1.54 2.3863 3.97569e-016 -7.95139e-016 3.18055e-015 -1.4042 -1.926 1.125 2.33875e-007 9.05495e-008 -7.16451e-007 -2.0956 0.66 -0.3894 1.19271e-015 -7.95139e-016 -0 -5.0395 -0.09 2.4971 -2.33875e-007 -9.05495e-008 7.16451e-007 -3.7921 -1.552 1.4806 3.97569e-016 -7.95139e-016 3.18055e-015 -1.4655 -1.808 0.9609 2.33875e-007 9.05495e-008 -7.16451e-007 -4.9141 -1.269 0.3592 -2.33875e-007 -9.05495e-008 7.16451e-007 -3.1477 -1.685 0.8462 3.97569e-016 -7.95139e-016 3.18055e-015 -0.8055 -1.585 0.7955 2.33875e-007 9.05495e-008 -7.16451e-007 8.367 -8.2066 0.5982 37.8523 4.81081 38.7889 2.1923 -43.463 -0.4932 57.3934 49.8865 -44.1701 0.7333 -45.8593 -2.6451 -4.8599 2.91909 1.35718 -8.367 -8.2066 0.5982 -37.8556 4.80742 -38.7988 -2.1923 -43.463 -0.4931 -57.4789 49.9294 44.2697 -0.7333 -45.8593 -2.6451 4.85621 2.92306 -1.36095 
